PathFileType	4	(X/Y/Z)	/Users/itak/Documents/Research/Walk-IL/dataset/trc/00317_00011.trc
DataRate	CameraRate	NumFrames	NumMarkers	Units	OrigDataRate	OrigDataStartFrame	OrigNumFrames
100.000000	100.000000	4	53	mm	100.000000	63	506
Frame#	Time	RPSI			LPSI			L3			STRN			T10			C7			CLAV			RBAK			LBAK			LSHO			LUPA			LAEL			LAOL			LWTS			LWPS			LFRA			LHPS			LHTS			RSHO			RUPA			RAEL			RAOL			RWTS			RWPS			RFRA			RIFD			RHTS			RHPS			RBHD			LFHD			RFHD			LBHD			LHIP			RHIP			RASI			LASI			LKNE			LTHI			LANK			LTIP			LTOE			LMT1			LMT5			LHEE			RKNE			RTHI			RANK			RTIP			RTOE			RMT1			RMT5			RHEE			LIFD			
		X1	Y1	Z1	X2	Y2	Z2	X3	Y3	Z3	X4	Y4	Z4	X5	Y5	Z5	X6	Y6	Z6	X7	Y7	Z7	X8	Y8	Z8	X9	Y9	Z9	X10	Y10	Z10	X11	Y11	Z11	X12	Y12	Z12	X13	Y13	Z13	X14	Y14	Z14	X15	Y15	Z15	X16	Y16	Z16	X17	Y17	Z17	X18	Y18	Z18	X19	Y19	Z19	X20	Y20	Z20	X21	Y21	Z21	X22	Y22	Z22	X23	Y23	Z23	X24	Y24	Z24	X25	Y25	Z25	X26	Y26	Z26	X27	Y27	Z27	X28	Y28	Z28	X29	Y29	Z29	X30	Y30	Z30	X31	Y31	Z31	X32	Y32	Z32	X33	Y33	Z33	X34	Y34	Z34	X35	Y35	Z35	X36	Y36	Z36	X37	Y37	Z37	X38	Y38	Z38	X39	Y39	Z39	X40	Y40	Z40	X41	Y41	Z41	X42	Y42	Z42	X43	Y43	Z43	X44	Y44	Z44	X45	Y45	Z45	X46	Y46	Z46	X47	Y47	Z47	X48	Y48	Z48	X49	Y49	Z49	X50	Y50	Z50	X51	Y51	Z51	X52	Y52	Z52	X53	Y53	Z53	

64	0.63	-1528.270874023438	989.2742919921875	77.36695098876953	-1527.861450195312	989.0565185546875	-51.91989898681641	-1532.192016601562	1045.199096679688	17.28732299804688	-1300.892944335938	1225.574462890625	2.786574840545654	-1544.85205078125	1166.794067382812	6.68674373626709	-1502.619384765625	1414.7060546875	-14.90001678466797	-1344.871826171875	1350.060913085938	-5.041720867156982	-1553.1728515625	1277.7578125	58.92343902587891	-1509.801147460938	1374.677734375	-116.512336730957	-1421.220458984375	1384.894653320312	-170.1927490234375	-1436.720336914062	1263.3544921875	-236.58154296875	-1414.361694335938	1059.238037109375	-245.2172698974609	-1479.692749023438	1044.498779296875	-193.4289398193359	-1315.04736328125	819.9635009765625	-204.4382781982422	-1359.013916015625	807.0953369140625	-257.1825561523438	-1397.825805664062	955.5568237304688	-250.8980407714844	-1359.646728515625	736.0592651367188	-248.7320861816406	-1303.322509765625	741.8658447265625	-219.5842590332031	-1444.590454101562	1401.515380859375	150.6138610839844	-1455.5537109375	1336.870727539062	216.6283111572266	-1450.255249023438	1070.932739257812	262.4131774902344	-1479.563354492188	1055.20263671875	175.6311492919922	-1324.765991210938	850.433349609375	265.1772155761719	-1382.158935546875	834.7510375976562	315.2022094726562	-1426.587768554688	1006.217468261719	278.0985107421875	-1307.839111328125	678.5663452148438	297.8064270019531	-1300.005126953125	751.601318359375	295.8508911132812	-1365.3564453125	752.5048828125	321.639404296875	-1481.90576171875	1605.530151367188	65.48246002197266	-1303.557861328125	1637.4296875	-38.74792098999023	-1321.329956054688	1635.427001953125	60.38363647460938	-1481.789184570312	1600.907348632812	-79.57009887695312	-1444.37548828125	926.8980712890625	-155.330078125	-1452.058227539062	932.2676391601562	187.4175567626953	-1345.773315429688	958.271728515625	145.0408477783203	-1321.637817382812	952.0335693359375	-93.31857299804688	-1418.203491210938	466.9755249023438	-134.3529052734375	-1406.013916015625	606.319091796875	-145.6829376220703	-1513.834350585938	50.20997619628906	-117.9212646484375	-1467.558227539062	252.1488494873047	-139.0326995849609	-1306.723388671875	46.18009567260742	-65.69415283203125	-1373.872192382812	33.67785263061523	-22.1095027923584	-1388.19091796875	46.59102249145508	-134.854736328125	-1546.358520507812	45.05472564697266	-49.2545051574707	-1433.830444335938	464.99951171875	164.1209411621094	-1386.471557617188	722.3098754882812	190.8918762207031	-1504.50439453125	52.5084114074707	136.5497283935547	-1432.06591796875	345.3203125	153.3882293701172	-1308.759155273438	45.84524154663086	93.42709350585938	-1363.019653320312	40.91082000732422	49.71681594848633	-1404.927612304688	41.46740341186523	159.9223327636719	-1553.518798828125	52.59069061279297	87.10378265380859	-1303.331665039062	660.3648681640625	-198.2463836669922	
65	0.64	-1527.785034179688	989.2283935546875	77.43501281738281	-1527.415771484375	989.0394287109375	-51.80197525024414	-1531.73486328125	1045.063232421875	17.33609771728516	-1300.4150390625	1225.65771484375	2.734402418136597	-1544.526611328125	1166.74462890625	6.661799430847168	-1502.380981445312	1414.593017578125	-14.89498710632324	-1344.468139648438	1350.046264648438	-5.124651908874512	-1552.910278320312	1277.679565429688	58.94642639160156	-1509.538696289062	1374.549438476562	-116.5014877319336	-1420.968627929688	1384.824096679688	-170.1911010742188	-1436.417358398438	1263.264282226562	-236.5749816894531	-1413.8193359375	1059.132446289062	-245.1594848632812	-1479.19921875	1044.3623046875	-193.3903045654297	-1314.187133789062	820.1119384765625	-204.4051818847656	-1358.222534179688	807.0719604492188	-257.0389709472656	-1397.189208984375	955.4945678710938	-250.8085327148438	-1358.783081054688	736.0675048828125	-248.5780181884766	-1302.366455078125	741.874267578125	-219.3189086914062	-1444.34326171875	1401.511474609375	150.5770416259766	-1455.238037109375	1336.85693359375	216.6530914306641	-1449.817626953125	1070.943115234375	262.5956115722656	-1479.100341796875	1055.144409179688	175.796142578125	-1324.128540039062	850.535400390625	265.4453125	-1381.526733398438	834.8297119140625	315.4532775878906	-1426.155639648438	1006.343505859375	278.2467956542969	-1307.06640625	678.6911010742188	298.1441650390625	-1299.262817382812	751.8338623046875	296.1190490722656	-1364.640747070312	752.6124267578125	321.9122314453125	-1481.4404296875	1605.540405273438	65.45815277099609	-1303.27197265625	1637.335327148438	-38.9337158203125	-1320.877685546875	1635.361450195312	60.11462020874023	-1481.638427734375	1600.871948242188	-79.61553955078125	-1443.963623046875	926.8648071289062	-155.3190460205078	-1451.457153320312	932.2431030273438	187.5490112304688	-1345.037231445312	958.3763427734375	144.9804992675781	-1321.188354492188	951.9024658203125	-93.39814758300781	-1417.888427734375	466.9500427246094	-134.3313140869141	-1405.837768554688	606.3514404296875	-145.7644653320312	-1513.8232421875	50.21177673339844	-117.9375991821289	-1467.439086914062	252.1584930419922	-139.0447082519531	-1306.712158203125	46.16262435913086	-65.70107269287109	-1373.870361328125	33.67565536499023	-22.10865592956543	-1388.18359375	46.58078002929688	-134.8591461181641	-1546.33642578125	45.08098602294922	-49.25080490112305	-1433.330688476562	465.0195922851562	164.0513458251953	-1385.8701171875	722.28271484375	190.8507080078125	-1504.496337890625	52.54302978515625	136.5442047119141	-1431.6904296875	345.3585815429688	153.3983306884766	-1308.7587890625	45.83504867553711	93.42765808105469	-1363.005493164062	40.89982223510742	49.69777679443359	-1404.923828125	41.47801971435547	159.9119567871094	-1553.492553710938	52.61597442626953	87.07979583740234	-1302.348388671875	660.3938598632812	-197.9911041259766	
66	0.65	-1527.294067382812	989.1646118164062	77.51309204101562	-1526.971069335938	989.0335693359375	-51.68748092651367	-1531.269653320312	1044.90771484375	17.38980484008789	-1299.954833984375	1225.733642578125	2.675673723220825	-1544.1689453125	1166.6884765625	6.675169467926025	-1502.106323242188	1414.455200195312	-14.86297225952148	-1344.113647460938	1350.018310546875	-5.170153617858887	-1552.634521484375	1277.58203125	58.94800186157227	-1509.266357421875	1374.421264648438	-116.4849243164062	-1420.720092773438	1384.754760742188	-170.1904602050781	-1436.133544921875	1263.173828125	-236.5803985595703	-1413.299438476562	1059.02783203125	-245.1040496826172	-1478.71240234375	1044.230712890625	-193.3529968261719	-1313.321533203125	820.2423706054688	-204.3795318603516	-1357.4306640625	807.0437622070312	-256.8809509277344	-1396.566528320312	955.4351196289062	-250.7202606201172	-1357.915771484375	736.0723266601562	-248.4124450683594	-1301.400634765625	741.8919677734375	-219.0496063232422	-1444.088134765625	1401.505493164062	150.5165710449219	-1454.908325195312	1336.83154296875	216.6843109130859	-1449.371826171875	1070.937255859375	262.7947998046875	-1478.609375	1055.066284179688	175.9425811767578	-1323.494506835938	850.6369018554688	265.6574401855469	-1380.888549804688	834.8804321289062	315.6797790527344	-1425.710815429688	1006.469177246094	278.3721008300781	-1306.309448242188	678.80859375	298.4619445800781	-1298.554809570312	752.0161743164062	296.3765869140625	-1363.912475585938	752.7251586914062	322.1441345214844	-1480.9990234375	1605.552734375	65.37406158447266	-1303.01025390625	1637.258911132812	-39.1363525390625	-1320.465087890625	1635.308959960938	59.85437393188477	-1481.472412109375	1600.831909179688	-79.67319488525391	-1443.557250976562	926.8287353515625	-155.3067321777344	-1450.825439453125	932.1943969726562	187.6972961425781	-1344.31884765625	958.4776000976562	144.8797607421875	-1320.677368164062	951.742919921875	-93.45883941650391	-1417.584228515625	466.9278869628906	-134.3106536865234	-1405.661743164062	606.3815307617188	-145.8407592773438	-1513.813232421875	50.21424102783203	-117.9448699951172	-1467.316284179688	252.1647033691406	-139.0522613525391	-1306.7021484375	46.14442443847656	-65.70795440673828	-1373.869750976562	33.67425918579102	-22.10755920410156	-1388.175903320312	46.57043838500977	-134.8624572753906	-1546.316040039062	45.10374069213867	-49.24711227416992	-1432.848388671875	465.0393676757812	163.9713287353516	-1385.2373046875	722.2479858398438	190.7973480224609	-1504.486083984375	52.57699966430664	136.5370941162109	-1431.313354492188	345.4223022460938	153.4029235839844	-1308.756225585938	45.82389068603516	93.42626953125	-1362.989501953125	40.8880729675293	49.67734527587891	-1404.920288085938	41.48623657226562	159.90185546875	-1553.468139648438	52.64243316650391	87.05597686767578	-1301.355224609375	660.4324951171875	-197.7313690185547	
67	0.66	-1526.786743164062	989.0811767578125	77.60134124755859	-1526.520629882812	989.0313720703125	-51.58496475219727	-1530.780395507812	1044.733520507812	17.44710922241211	-1299.517333984375	1225.797119140625	2.61072301864624	-1543.769653320312	1166.6162109375	6.739909648895264	-1501.79443359375	1414.295532226562	-14.80780982971191	-1343.816162109375	1349.98095703125	-5.171579837799072	-1552.33203125	1277.461791992188	58.93488693237305	-1508.985961914062	1374.294921875	-116.4647750854492	-1420.47607421875	1384.685791015625	-170.1927185058594	-1435.8681640625	1263.083374023438	-236.5976867675781	-1412.8056640625	1058.927490234375	-245.0506286621094	-1478.234619140625	1044.10498046875	-193.3180999755859	-1312.468872070312	820.352783203125	-204.3298797607422	-1356.644653320312	807.01416015625	-256.7117614746094	-1395.955078125	955.3778686523438	-250.6285858154297	-1357.032470703125	736.0709838867188	-248.2288360595703	-1300.440063476562	741.9246826171875	-218.7900085449219	-1443.826416015625	1401.494262695312	150.4346008300781	-1454.570068359375	1336.799072265625	216.7201232910156	-1448.920288085938	1070.915893554688	262.997802734375	-1478.095336914062	1054.976928710938	176.0678253173828	-1322.867431640625	850.7448120117188	265.8085327148438	-1380.245239257812	834.905029296875	315.885498046875	-1425.238403320312	1006.582153320312	278.476806640625	-1305.568603515625	678.909423828125	298.7481689453125	-1297.8779296875	752.148193359375	296.6224060058594	-1363.184448242188	752.8394775390625	322.3267517089844	-1480.591674804688	1605.565063476562	65.23995971679688	-1302.76513671875	1637.197875976562	-39.35740280151367	-1320.103759765625	1635.268676757812	59.61430358886719	-1481.2880859375	1600.784912109375	-79.74391174316406	-1443.147338867188	926.7896118164062	-155.28759765625	-1450.183837890625	932.1215209960938	187.8446350097656	-1343.646484375	958.5625610351562	144.7481384277344	-1320.09765625	951.568603515625	-93.49761962890625	-1417.292602539062	466.90869140625	-134.2934875488281	-1405.473510742188	606.405517578125	-145.9037170410156	-1513.803833007812	50.21948623657227	-117.940299987793	-1467.191284179688	252.16845703125	-139.0560150146484	-1306.69384765625	46.12697601318359	-65.71434020996094	-1373.870971679688	33.67119216918945	-22.10434722900391	-1388.167846679688	46.56021118164062	-134.8646697998047	-1546.29736328125	45.12366104125977	-49.24430465698242	-1432.400146484375	465.0526733398438	163.8886260986328	-1384.57470703125	722.206787109375	190.7314758300781	-1504.473388671875	52.61050796508789	136.5278472900391	-1430.945434570312	345.4996948242188	153.3982391357422	-1308.7509765625	45.81137466430664	93.42277526855469	-1362.971435546875	40.87499237060547	49.65506362915039	-1404.916381835938	41.49151229858398	159.8919830322266	-1553.446044921875	52.66938018798828	87.03155517578125	-1300.3671875	660.486328125	-197.4809265136719	
